<?xml version="1.0" encoding="iso-8859-1"?>
<!-- Generator: Adobe Illustrator 16.0.0, SVG Export Plug-In . SVG Version: 6.00 Build 0)  -->
<!DOCTYPE svg PUBLIC "-//W3C//DTD SVG 1.1//EN" "http://www.w3.org/Graphics/SVG/1.1/DTD/svg11.dtd">
<svg version="1.1" id="Capa_1" xmlns="http://www.w3.org/2000/svg" xmlns:xlink="http://www.w3.org/1999/xlink" x="0px" y="0px"
	 width="35.296px" height="35.296px" viewBox="0 0 35.296 35.296" style="enable-background:new 0 0 35.296 35.296;"
	 xml:space="preserve">
<g>
	<path d="M32.521,26.21c-0.844,0.845-2.212,0.845-3.057,0l-1.351-1.35c-6.26,5.793-14.302,7.537-19.108,4.283l-5.315,5.317
		c-0.845,0.845-2.213,0.845-3.058,0c-0.844-0.846-0.844-2.213,0-3.059l5.533-5.531C3.772,21,5.652,13.624,11.049,7.79L9.7,6.442
		c-0.845-0.845-0.845-2.213,0-3.059c0.845-0.842,2.212-0.842,3.058,0l3.463,3.465l6.012-6.012c0.846-0.845,2.212-0.845,3.057,0
		c0.846,0.845,0.846,2.211,0,3.057l-6.013,6.012l6.316,6.316l6.012-6.012c0.846-0.846,2.213-0.846,3.058,0
		c0.844,0.844,0.844,2.213,0,3.056l-6.013,6.013l3.871,3.871C33.367,23.997,33.367,25.364,32.521,26.21z"/>
</g>
<g>
</g>
<g>
</g>
<g>
</g>
<g>
</g>
<g>
</g>
<g>
</g>
<g>
</g>
<g>
</g>
<g>
</g>
<g>
</g>
<g>
</g>
<g>
</g>
<g>
</g>
<g>
</g>
<g>
</g>
</svg>
