<?xml version="1.0" encoding="UTF-8" standalone="no"?>
<svg
   xmlns:dc="http://purl.org/dc/elements/1.1/"
   xmlns:cc="http://creativecommons.org/ns#"
   xmlns:rdf="http://www.w3.org/1999/02/22-rdf-syntax-ns#"
   xmlns:svg="http://www.w3.org/2000/svg"
   xmlns="http://www.w3.org/2000/svg"
   xmlns:sodipodi="http://sodipodi.sourceforge.net/DTD/sodipodi-0.dtd"
   xmlns:inkscape="http://www.inkscape.org/namespaces/inkscape"
   width="16"
   height="16"
   viewBox="0 0 16 16"
   version="1.1"
   id="svg839"
   sodipodi:docname="globe.svg"
   inkscape:version="1.0.1 (c497b03c, 2020-09-10)">
  <metadata
     id="metadata845">
    <rdf:RDF>
      <cc:Work
         rdf:about="">
        <dc:format>image/svg+xml</dc:format>
        <dc:type
           rdf:resource="http://purl.org/dc/dcmitype/StillImage" />
        <dc:title>globe copy</dc:title>
      </cc:Work>
    </rdf:RDF>
  </metadata>
  <defs
     id="defs843" />
  <sodipodi:namedview
     pagecolor="#ffffff"
     bordercolor="#666666"
     borderopacity="1"
     objecttolerance="10"
     gridtolerance="10"
     guidetolerance="10"
     inkscape:pageopacity="0"
     inkscape:pageshadow="2"
     inkscape:window-width="2338"
     inkscape:window-height="1001"
     id="namedview841"
     showgrid="false"
     inkscape:zoom="47.714286"
     inkscape:cx="4.505988"
     inkscape:cy="8.0269461"
     inkscape:window-x="8"
     inkscape:window-y="91"
     inkscape:window-maximized="0"
     inkscape:current-layer="svg839" />
  <title
     id="title833">globe copy</title>
  <g
     id="Page-1"
     stroke="none"
     stroke-width="1"
     fill="none"
     fill-rule="evenodd"
     style="fill:#000000;fill-opacity:1"
     transform="translate(1,1)">
    <g
       id="Artboard"
       transform="translate(-344,-83)"
       fill="#000000"
       fill-rule="nonzero"
       style="fill:#000000;fill-opacity:1">
      <g
         id="globe-copy"
         transform="translate(344,83)"
         style="fill:#000000;fill-opacity:1">
        <path
           d="m 7,0 c 3.865993,0 7,3.1340068 7,7 0,3.865993 -3.134007,7 -7,7 C 3.1340068,14 0,10.865993 0,7 0,3.1340068 3.1340068,0 7,0 Z m 5.270462,4.3076923 C 11.579772,2.9647782 10.40446,1.9345998 8.9826154,1.4258461 9.4607692,2.3304615 9.8064615,3.2996923 10.008923,4.3076923 Z m 0.626769,3.2253846 C 12.914463,7.3559072 12.923077,7.1780057 12.923077,7 12.922,6.4534991 12.844797,5.9098123 12.693692,5.3846154 h -2.522153 c 0.03446,0.3564615 0.05923,0.7150769 0.05923,1.0769231 -0.0022,0.7235351 -0.07654,1.4450479 -0.221846,2.1538461 h 2.684769 C 12.796,8.2610769 12.863846,7.8992308 12.898308,7.5330769 Z m -3.8069233,0 0.00646,-0.054923 C 9.1335151,7.1405097 9.1525668,6.8011739 9.1538462,6.4615385 9.1466148,6.1013213 9.1192903,5.7417881 9.072,5.3846154 H 4.928 C 4.880315,5.7417469 4.852989,6.1013023 4.846154,6.4615385 4.848784,7.1866237 4.932955,7.909113 5.097077,8.6153846 H 8.9029231 C 8.9858462,8.2578462 9.0483077,7.8970769 9.0903077,7.5330769 Z M 8.8835385,4.3076923 C 8.6298204,3.1686858 8.1719183,2.085045 7.532,1.1092308 7.3553846,1.0941539 7.1787692,1.0769231 7,1.0769231 6.8878197,1.0774708 6.7757154,1.0828605 6.664,1.0930769 L 6.468,1.1092308 6.4615385,1.12 C 5.8249967,2.0929584 5.3693306,3.1728396 5.1164615,4.3076923 Z m -4.8924616,0 C 4.1976466,3.3003885 4.5480018,2.3280259 5.0313846,1.4204615 3.6033675,1.9274764 2.422498,2.9600633 1.7295385,4.3076923 Z M 1.3063077,5.3846154 C 1.1554221,5.9098591 1.078223,6.4535151 1.0769231,7 c 0.0013,0.5464849 0.078499,1.0901409 0.2293846,1.6153846 H 3.9910769 C 3.8450736,7.9066941 3.7707505,7.1851108 3.7692308,6.4615385 c 0,-0.3618462 0.024769,-0.7204616 0.059231,-1.0769231 H 1.3063077 Z M 4.2721538,9.6923077 H 1.7306154 C 2.5552915,11.303166 4.0694039,12.450149 5.8433846,12.807846 5.154139,11.86142 4.6234632,10.809162 4.2721538,9.6923077 Z M 7,12.539692 C 7.6886296,11.687988 8.2269151,10.725046 8.5916923,9.6923077 H 5.4083077 C 5.7731041,10.725038 6.3113878,11.687976 7,12.539692 Z M 9.7278462,9.6923077 C 9.376519,10.809155 8.8458446,11.86141 8.1566154,12.807846 9.9304627,12.449853 11.44446,11.302958 12.269385,9.6923077 Z"
           id="Shape"
           style="fill:#000000;fill-opacity:1" />
      </g>
    </g>
  </g>
</svg>
