<?xml version="1.0" encoding="UTF-8" standalone="no"?>
<svg
   xmlns:dc="http://purl.org/dc/elements/1.1/"
   xmlns:cc="http://creativecommons.org/ns#"
   xmlns:rdf="http://www.w3.org/1999/02/22-rdf-syntax-ns#"
   xmlns:svg="http://www.w3.org/2000/svg"
   xmlns="http://www.w3.org/2000/svg"
   xmlns:sodipodi="http://sodipodi.sourceforge.net/DTD/sodipodi-0.dtd"
   xmlns:inkscape="http://www.inkscape.org/namespaces/inkscape"
   height="1024"
   width="896"
   version="1.1"
   id="svg12"
   sodipodi:docname="Octicons-clippy.svg"
   inkscape:version="1.0.1 (c497b03c, 2020-09-10)">
  <metadata
     id="metadata18">
    <rdf:RDF>
      <cc:Work
         rdf:about="">
        <dc:format>image/svg+xml</dc:format>
        <dc:type
           rdf:resource="http://purl.org/dc/dcmitype/StillImage" />
      </cc:Work>
    </rdf:RDF>
  </metadata>
  <defs
     id="defs16" />
  <sodipodi:namedview
     pagecolor="#ffffff"
     bordercolor="#666666"
     borderopacity="1"
     objecttolerance="10"
     gridtolerance="10"
     guidetolerance="10"
     inkscape:pageopacity="0"
     inkscape:pageshadow="2"
     inkscape:window-width="1291"
     inkscape:window-height="1169"
     id="namedview14"
     showgrid="false"
     inkscape:zoom="0.984375"
     inkscape:cx="252.44444"
     inkscape:cy="512"
     inkscape:window-x="0"
     inkscape:window-y="23"
     inkscape:window-maximized="0"
     inkscape:current-layer="svg12" />
  <path
     d="M704 896h-640v-576h640v192h64v-320c0-35-29-64-64-64h-192c0-71-57-128-128-128s-128 57-128 128h-192c-35 0-64 29-64 64v704c0 35 29 64 64 64h640c35 0 64-29 64-64v-128h-64v128z m-512-704c29 0 29 0 64 0s64-29 64-64 29-64 64-64 64 29 64 64 32 64 64 64 33 0 64 0 64 29 64 64h-512c0-39 28-64 64-64z m-64 512h128v-64h-128v64z m448-128v-128l-256 192 256 192v-128h320v-128h-320z m-448 256h192v-64h-192v64z m320-448h-320v64h320v-64z m-192 128h-128v64h128v-64z"
     id="path10"
     style="fill:#c8c8c8;fill-opacity:1" />
</svg>
